<?xml version="1.0" encoding="UTF-8" standalone="no"?>
<!-- Created with Inkscape (http://www.inkscape.org/) -->

<svg
   width="113.39264mm"
   height="112.83735mm"
   viewBox="0 0 113.39264 112.83735"
   version="1.1"
   id="svg1"
   xml:space="preserve"
   inkscape:version="1.4.2 (1:1.4.2+202505120738+ebf0e940d0)"
   sodipodi:docname="fc-aich-logo.svg"
   xmlns:inkscape="http://www.inkscape.org/namespaces/inkscape"
   xmlns:sodipodi="http://sodipodi.sourceforge.net/DTD/sodipodi-0.dtd"
   xmlns="http://www.w3.org/2000/svg"
   xmlns:svg="http://www.w3.org/2000/svg"><sodipodi:namedview
     id="namedview1"
     pagecolor="#ffffff"
     bordercolor="#666666"
     borderopacity="1.0"
     inkscape:showpageshadow="2"
     inkscape:pageopacity="0.0"
     inkscape:pagecheckerboard="0"
     inkscape:deskcolor="#d1d1d1"
     inkscape:document-units="mm"
     inkscape:zoom="2.3823884"
     inkscape:cx="229.8114"
     inkscape:cy="278.08228"
     inkscape:window-width="3782"
     inkscape:window-height="2096"
     inkscape:window-x="58"
     inkscape:window-y="27"
     inkscape:window-maximized="1"
     inkscape:current-layer="svg1" /><defs
     id="defs1" /><path
     style="display:inline;fill:#ffffff;fill-opacity:1;stroke:none;stroke-width:4.99999;stroke-linecap:round;stroke-linejoin:round;stroke-miterlimit:4.4;stroke-dasharray:none;stroke-dashoffset:0;stroke-opacity:1;paint-order:normal"
     id="path6"
     sodipodi:type="arc"
     sodipodi:cx="56.585262"
     sodipodi:cy="56.474209"
     sodipodi:rx="50.531399"
     sodipodi:ry="50.420338"
     sodipodi:start="0"
     sodipodi:end="6.277848"
     sodipodi:open="true"
     sodipodi:arc-type="arc"
     d="M 107.11666,56.474209 A 50.531399,50.420338 0 0 1 56.652688,106.8945 50.531399,50.420338 0 0 1 6.0540435,56.608763 50.531399,50.420338 0 0 1 56.382987,6.0542751 50.531399,50.420338 0 0 1 107.11594,56.205101"
     inkscape:label="weisskreisinnen" /><path
     style="display:inline;fill:none;fill-opacity:1;stroke:#ffffff;stroke-width:5.10744;stroke-linecap:round;stroke-linejoin:round;stroke-miterlimit:4.4;stroke-dasharray:none;stroke-dashoffset:0;stroke-opacity:1;paint-order:normal"
     id="path7"
     sodipodi:type="arc"
     sodipodi:cx="56.69632"
     sodipodi:cy="56.418678"
     sodipodi:rx="54.142597"
     sodipodi:ry="53.864948"
     sodipodi:start="0"
     sodipodi:end="6.277848"
     sodipodi:open="true"
     sodipodi:arc-type="arc"
     d="M 110.83892,56.418678 A 54.142597,53.864948 0 0 1 56.768563,110.28358 54.142597,53.864948 0 0 1 2.5539152,56.562425 54.142597,53.864948 0 0 1 56.479588,2.5541616 54.142597,53.864948 0 0 1 110.83815,56.131186"
     inkscape:label="weisskreisaussen" /><g
     inkscape:groupmode="layer"
     id="layer2"
     inkscape:label="Layer 2"
     transform="translate(3.721653,3.4995324)" /><g
     inkscape:label="Layer 1"
     inkscape:groupmode="layer"
     id="layer1"
     transform="translate(-42.958618,-70.589835)"
     style="display:inline"><path
       style="display:inline;fill:#323296;fill-opacity:1"
       d="m 116.00212,149.44387 c -1.30019,-0.42808 -1.80857,-0.74247 -2.47216,-1.52877 -0.9129,-1.08171 -1.21966,-1.90382 -1.2895,-3.45574 -0.051,-1.13397 0.01,-1.6131 0.40036,-3.15217 0.43175,-1.70151 1.10608,-3.498 1.82847,-4.87122 0.37037,-0.70406 1.7354,-2.7592 1.97377,-2.97162 0.0917,-0.0817 0.32518,-0.43253 0.51885,-0.77958 0.37268,-0.66781 1.72073,-1.8942 2.73597,-2.48904 1.14522,-0.671 3.14415,-1.01037 4.40197,-0.74734 0.28313,0.0592 0.89923,0.27739 1.36912,0.48484 0.65322,0.2884 0.85434,0.45144 0.85434,0.69254 0,0.26767 -1.39399,4.57142 -1.57831,4.8728 -0.0345,0.0565 -0.34544,-0.0256 -0.69091,-0.18246 -0.84451,-0.38337 -2.16877,-0.38342 -2.92011,-1.2e-4 -0.74188,0.37848 -1.30273,1.1047 -2.13391,2.7631 -0.72743,1.4514 -1.00384,2.57082 -0.98601,3.99311 0.0221,1.76176 0.53668,2.35758 2.27321,2.63209 0.40504,0.064 0.79336,0.17334 0.86293,0.24291 0.0696,0.0696 -0.11312,0.75681 -0.40629,1.52801 -0.29303,0.77084 -0.63248,1.67892 -0.75433,2.01797 -0.34487,0.95962 -0.63046,1.13407 -1.9515,1.19204 -0.85078,0.0373 -1.3801,-0.0254 -2.03596,-0.24135 z m 7.85558,-0.007 c -2.07067,-0.0871 -2.04489,-0.0594 -1.46532,-1.57585 0.21531,-0.56338 0.84732,-2.32812 1.40446,-3.92165 1.21817,-3.48424 6.25372,-17.02647 7.79003,-20.94996 0.43198,-1.10322 0.87026,-2.32217 0.97395,-2.70879 0.10369,-0.38661 0.27042,-0.77091 0.37053,-0.85398 0.24661,-0.20468 5.85929,-0.2247 6.06236,-0.0216 0.16074,0.16074 -0.37532,1.8184 -1.63964,5.07021 -0.96853,2.49107 -1.55713,4.44405 -1.45819,4.83828 0.13415,0.5345 0.55115,0.55853 2.26132,0.13033 2.30618,-0.57745 3.55654,-0.34531 4.95955,0.92075 1.65627,1.49461 1.49084,2.89841 -1.19695,10.15742 -2.24289,6.05746 -2.54132,6.84018 -3.01297,7.90245 l -0.3751,0.84485 -1.60963,0.0466 c -2.01564,0.0584 -3.85668,-0.0559 -4.03509,-0.25052 -0.14197,-0.15488 0.008,-0.5957 2.72347,-8.02339 0.83663,-2.28815 1.56533,-4.5104 1.61934,-4.93832 0.1062,-0.84136 -0.13658,-1.55708 -0.58677,-1.72983 -0.50171,-0.19253 -1.5669,-0.0819 -2.20733,0.22925 -0.56813,0.27602 -0.72551,0.46008 -1.11159,1.30008 -0.24737,0.5382 -0.69351,1.68059 -0.99142,2.53865 -0.29791,0.85806 -0.60892,1.68599 -0.69115,1.83986 -0.13199,0.24701 -0.92267,2.36914 -1.97173,5.29204 -0.19065,0.53118 -0.5143,1.26665 -0.71922,1.63439 -0.20493,0.36774 -0.45612,0.95357 -0.55821,1.30185 -0.1021,0.34828 -0.25838,0.69351 -0.34731,0.76717 -0.2181,0.18066 -2.03882,0.2501 -4.18739,0.1597 z m -42.078309,-0.11671 c -1.176477,-0.0326 -1.548892,-0.0926 -1.613008,-0.25965 -0.09128,-0.23787 0.309295,-1.06767 1.50388,-3.1153 1.62143,-2.77928 2.693659,-4.68022 3.938966,-6.98332 0.706985,-1.30751 1.79025,-3.2465 2.407255,-4.30885 0.617005,-1.06236 1.33981,-2.36616 1.606232,-2.89734 0.266423,-0.53118 0.604407,-1.13587 0.751076,-1.34377 0.146669,-0.2079 0.963395,-1.71229 1.814946,-3.34308 2.117331,-4.05487 3.794141,-7.07045 4.115091,-7.40056 0.24562,-0.25264 0.54004,-0.27398 3.59133,-0.2604 1.828071,0.008 3.524351,0.0695 3.769511,0.13643 0.57346,0.15649 0.6147,0.48934 0.2938,2.3709 -0.13561,0.7951 -0.30299,1.9471 -0.37196,2.56 -0.069,0.6129 -0.26385,1.84984 -0.43306,2.74875 -0.16921,0.89892 -0.40523,2.36988 -0.52449,3.26879 -0.11926,0.89892 -0.28412,2.00213 -0.36636,2.45159 -0.0822,0.44946 -0.3192,2.121 -0.52657,3.71453 -0.36787,2.82687 -1.16551,7.79329 -1.63464,10.17782 -0.128621,0.65376 -0.282211,1.4561 -0.341311,1.78298 l -0.10746,0.59432 -1.63421,0.0743 c -0.89882,0.0409 -2.20255,0.0409 -2.89716,0 l -1.262944,-0.0743 v -1.55215 -1.55216 l -0.520034,-0.10839 c -0.286019,-0.0596 -1.295609,-0.15476 -2.243533,-0.21144 -1.684127,-0.10068 -1.731094,-0.095 -2.056046,0.24903 -0.182902,0.19364 -0.651291,1.00863 -1.040864,1.81109 l -0.708316,1.45902 -1.990238,0.0268 c -1.094632,0.0147 -2.678579,0.008 -3.519883,-0.0156 z m 13.418388,-9.15219 c 0.12759,-0.19472 0.36249,-1.11406 0.52201,-2.04299 0.15951,-0.92893 0.35911,-1.92298 0.44353,-2.209 0.0844,-0.28602 0.19482,-1.12872 0.24532,-1.87268 0.0987,-1.45409 0.0222,-1.64454 -0.59818,-1.48885 -0.26238,0.0659 -0.67403,0.77748 -1.92044,3.31992 -0.872554,1.77986 -1.629424,3.45324 -1.681931,3.71863 -0.154401,0.7804 0.08815,0.929 1.516404,0.929 1.143827,0 1.259537,-0.0278 1.473287,-0.35403 z m 7.501111,9.14687 c -0.28602,-0.0263 -0.5717,-0.098 -0.63485,-0.15939 -0.13428,-0.13057 0.53189,-2.10263 2.41448,-7.14764 2.77474,-7.43579 4.49331,-11.82988 4.7125,-12.04906 0.11251,-0.11252 2.78536,-0.19305 4.91148,-0.14799 0.57468,0.0122 0.63147,0.0475 0.63147,0.39308 0,0.43794 -1.5699,5.21218 -2.61118,7.94086 -0.3898,1.02149 -0.98957,2.62617 -1.33281,3.56595 -0.34324,0.93977 -0.858,2.24357 -1.14392,2.89733 -0.28591,0.65376 -0.83187,1.92331 -1.21323,2.82122 -0.38136,0.89791 -0.74563,1.68482 -0.8095,1.74869 -0.11765,0.11764 -3.96823,0.22473 -4.92444,0.13695 z m -31.127775,-0.77777 c -3.911758,-0.35771 -6.524457,-1.58943 -9.334928,-4.40083 -2.04516,-2.04583 -3.187497,-3.80132 -3.964292,-6.09214 -1.34916,-3.97875 -1.68628,-5.43221 -2.096103,-9.03715 -0.220407,-1.93878 -0.214577,-1.60617 -0.08336,-4.75557 0.118441,-2.84273 0.288114,-4.45272 0.618415,-5.86799 0.123969,-0.53118 0.327626,-1.55212 0.452573,-2.26876 0.29147,-1.67175 1.435127,-5.36947 2.088715,-6.75333 0.278721,-0.59014 0.506767,-1.14261 0.506767,-1.22772 0,-0.36598 1.798403,-3.89868 2.573097,-5.05446 1.06805,-1.59344 2.494049,-3.60626 3.11507,-4.39697 0.262875,-0.3347 0.759774,-0.98057 1.10422,-1.43527 0.822903,-1.08631 3.31281,-3.54614 4.595576,-4.54007 2.523564,-1.95533 3.528045,-2.61897 5.618757,-3.71216 2.242472,-1.17254 2.839073,-1.40667 5.726214,-2.24719 1.452543,-0.42288 2.082824,-0.54672 4.606019,-0.90506 2.375343,-0.33735 6.152644,-0.0853 8.480864,0.5658 1.06114,0.29678 2.59764,1.10129 3.37353,1.7664 l 0.48792,0.41825 -0.38921,1.33723 c -0.21407,0.73548 -0.5573,1.67154 -0.76274,2.08014 -0.20544,0.4086 -0.57085,1.40413 -0.81203,2.2123 -0.24118,0.80817 -0.55978,1.7108 -0.70802,2.00585 -0.14823,0.29505 -0.31376,0.78046 -0.36783,1.0787 -0.14099,0.77769 -0.44996,0.99413 -0.95608,0.66978 -2.096644,-1.34367 -3.497974,-1.7407 -6.489138,-1.83853 l -2.3773,-0.0778 -1.770625,0.61269 c -1.882569,0.65142 -4.231898,1.83298 -5.212695,2.62163 -0.326879,0.26284 -0.980224,0.74307 -1.451879,1.06717 -0.471654,0.3241 -1.049814,0.88425 -1.2848,1.24478 -0.234986,0.36052 -0.885441,1.1733 -1.445456,1.80618 -1.351445,1.52729 -1.835406,2.13136 -1.835406,2.29092 0,0.0726 -0.300065,0.6142 -0.666811,1.20352 -0.771264,1.23934 -2.453396,4.71986 -2.453396,5.07636 0,0.13301 -0.22238,0.70798 -0.494179,1.27772 -0.370109,0.77581 -0.575809,1.53947 -0.819319,3.04172 -0.178827,1.10322 -0.38947,2.30673 -0.468096,2.67446 -0.274778,1.28517 -0.330267,6.76348 -0.08653,8.54343 0.345052,2.51987 0.478438,3.02567 1.151134,4.3651 0.945423,1.88247 1.794383,2.72019 3.682122,3.63334 l 1.566601,0.75781 3.194497,5.9e-4 c 2.98038,5.5e-4 3.239313,-0.0211 3.863113,-0.32355 0.618482,-0.29982 0.671871,-0.3046 0.712032,-0.0637 0.02388,0.14323 -0.268053,1.05999 -0.648739,2.03725 -0.797816,2.04807 -1.88531,4.97335 -2.290017,6.15998 -0.788783,2.31276 -1.355175,3.61502 -1.652092,3.79852 -0.09152,0.0566 -0.643602,0.2272 -1.226852,0.3792 -1.317043,0.34322 -3.420997,0.44957 -5.369311,0.2714 z m 2.090048,-19.61843 c -0.293275,-0.0486 -0.580885,-0.13598 -0.639135,-0.19423 -0.05825,-0.0582 0.0831,-0.62026 0.314121,-1.24891 0.231016,-0.62866 0.710733,-1.94535 1.066037,-2.92599 0.585949,-1.61721 1.097443,-2.96296 3.134256,-8.24626 0.362302,-0.93978 0.784286,-2.07642 0.937743,-2.52588 0.153457,-0.44946 0.656496,-1.78669 1.117864,-2.97163 0.461369,-1.18493 1.14277,-2.99019 1.514226,-4.01169 0.371455,-1.0215 0.760652,-2.02442 0.864881,-2.22872 0.10423,-0.2043 0.402554,-1.01916 0.662943,-1.81079 0.260389,-0.79164 0.566428,-1.51652 0.680087,-1.61085 0.225588,-0.18722 14.726173,-0.23773 15.458823,-0.0539 0.36792,0.0923 0.38265,0.1325 0.28751,0.78349 -0.0552,0.37738 -0.26924,1.08732 -0.47574,1.57764 -0.2065,0.49032 -0.53825,1.36931 -0.73721,1.95331 -0.50089,1.47024 -0.42333,1.44856 -4.702815,1.31483 -3.949804,-0.12342 -4.171376,-0.0792 -4.604116,0.91904 -0.725604,1.6738 -1.343515,3.47086 -1.402404,4.07859 -0.105672,1.09055 0.09339,1.16553 3.150035,1.18651 1.391482,0.01 2.964567,0.0597 3.495745,0.11143 0.913595,0.089 0.964655,0.11414 0.945015,0.46553 -0.0114,0.2043 -0.38768,1.43673 -0.83613,2.73873 -0.680381,1.97537 -0.873733,2.38894 -1.167889,2.49807 -0.193885,0.0719 -2.002668,0.12589 -4.019519,0.11991 -2.36003,-0.007 -3.794077,0.047 -4.023541,0.15157 -0.245389,0.11181 -0.520922,0.54075 -0.883832,1.37592 -0.703645,1.61932 -1.99355,4.93787 -2.499189,6.4297 -0.561683,1.65717 -0.692394,1.87609 -1.051989,1.76196 -0.162799,-0.0517 -0.40198,-0.005 -0.53318,0.1043 -0.260368,0.21667 -5.065712,0.42171 -6.052597,0.25827 z m 39.066967,-3.01091 c -0.99076,-0.46159 -1.70869,-1.70712 -1.70869,-2.9644 0,-1.93609 1.16608,-3.56876 2.77994,-3.89229 1.12742,-0.22602 1.73555,-0.0735 2.43688,0.61137 0.77131,0.75317 1.06433,1.65749 0.88544,2.73267 -0.0748,0.44946 -0.1913,0.95092 -0.25892,1.11436 -0.2484,0.60034 -1.27026,1.85339 -1.75652,2.15392 -0.64635,0.39946 -1.79246,0.51724 -2.37813,0.24437 z"
       id="path1"
       sodipodi:nodetypes="csccsssssssccssscsssccssssscsssssssccscssssssssssssccsssssssccscsscsssccccccccssccccsscscssssccsscssssssccssssssssssscscscscssssscccsssssssssssssscscssscsccccsssssssssccssssscccscscssccccssscccss" /><path
       style="display:inline;fill:none;fill-opacity:1;stroke:#323296;stroke-width:4.99999;stroke-linecap:round;stroke-linejoin:round;stroke-miterlimit:4.4;stroke-dasharray:none;stroke-dashoffset:0;stroke-opacity:1;paint-order:normal"
       id="path4"
       sodipodi:type="arc"
       sodipodi:cx="99.543884"
       sodipodi:cy="127.06404"
       sodipodi:rx="50.531399"
       sodipodi:ry="50.420338"
       sodipodi:start="0"
       sodipodi:end="6.277848"
       sodipodi:open="true"
       sodipodi:arc-type="arc"
       d="M 150.07528,127.06404 A 50.531399,50.420338 0 0 1 99.61131,177.48433 50.531399,50.420338 0 0 1 49.012665,127.1986 50.531399,50.420338 0 0 1 99.341609,76.644107 50.531399,50.420338 0 0 1 150.07456,126.79493" /></g></svg>
